<svg width="37" height="40" viewBox="0 0 37 40" fill="none" xmlns="http://www.w3.org/2000/svg">
<path d="M37.0022 40H17.0002V0H37.0022V40ZM26.6155 29.1113C26.0681 29.1621 25.518 29.2293 24.9915 29.3867C24.7432 29.4768 24.4935 29.5639 24.2424 29.6465C24.2358 29.6803 24.2214 29.7493 24.2151 29.7812C24.7161 29.8466 25.2061 29.9814 25.6741 30.1738C26.8329 30.6604 27.9186 31.2984 29.0247 31.8896C29.5638 32.208 30.1341 32.467 30.7122 32.7051C30.9637 32.8184 31.2579 32.8091 31.4866 32.9756C30.9878 33.2885 30.3968 33.1125 29.8713 32.9834C29.0243 32.7535 28.2079 32.4216 27.4329 32.0127C27.2908 31.9356 27.1424 31.866 26.9885 31.8145C27.3097 32.4742 28.0385 33.0161 27.9436 33.8184C27.6008 33.5377 27.449 33.1023 27.1282 32.8027C26.5173 32.1695 25.8067 31.6405 25.051 31.1934C24.2925 30.7867 23.4462 30.4129 22.5637 30.5439C21.9725 30.7431 21.3968 30.9861 20.8167 31.2168C20.3837 31.4246 19.9356 31.6612 19.6545 32.0654C19.4888 32.3315 19.34 32.6129 19.2522 32.9141C19.203 33.463 19.2585 34.0202 19.1711 34.5645C19.1589 35.5914 19.1533 36.6199 19.1663 37.6484C19.3174 37.8833 19.5555 38.0616 19.7463 38.2686C20.3454 38.8503 21.1974 39.0928 22.0129 39.1396C22.6327 39.2758 23.2551 39.098 23.8713 39.0303C25.2896 38.7961 26.6712 38.3114 27.9124 37.5801C28.4067 37.2782 28.881 36.9439 29.3391 36.5908C30.3758 35.7457 31.2177 34.6631 31.7786 33.4473C31.977 33.0127 32.0542 32.5366 32.2073 32.0879C32.3077 31.7534 32.4795 31.4163 32.4094 31.0566C32.0265 30.7552 31.5958 30.5191 31.1936 30.2432C30.6985 29.9087 30.135 29.6742 29.553 29.54C29.0594 29.4676 28.5773 29.3173 28.0754 29.3047C27.5862 29.2578 27.1032 29.1609 26.6155 29.1113ZM27.7122 23.2617C26.945 23.3432 26.2185 23.631 25.5178 23.9424C25.0727 24.1278 24.6286 24.3325 24.2512 24.6367C23.9176 24.9243 23.5444 25.1614 23.179 25.4053C22.7617 25.7032 22.4107 26.09 22.1438 26.5273C21.7132 27.2248 21.3663 27.9701 21.0325 28.7168C20.7546 29.4571 20.3658 30.1485 20.0872 30.8877C20.4256 30.6189 20.7743 30.3628 21.1399 30.1338C22.6699 29.3017 24.2555 28.5547 25.9202 28.0352C26.0802 27.9789 26.2274 27.8864 26.345 27.7637C26.809 27.2972 27.1449 26.7231 27.4622 26.1523C27.5676 25.9221 27.6621 25.673 27.8743 25.5176C27.9829 26.3689 27.5742 27.1761 27.1409 27.8799C27.2491 27.8618 27.372 27.8756 27.4641 27.8018C27.7526 27.5991 28.0171 27.3615 28.3245 27.1855C29.3635 26.6015 30.4963 26.1777 31.6692 25.9521C32.0199 25.9494 32.3724 25.8137 32.718 25.916C32.9219 25.9526 33.1176 26.0309 33.2805 26.1611C32.3906 26.5799 31.3868 26.6337 30.4768 26.9902C29.9116 27.204 29.339 27.426 28.845 27.7803C28.5739 27.9526 28.2978 28.1222 28.0471 28.3232C28.225 28.3893 28.4141 28.4148 28.6038 28.416C29.8688 28.529 31.0995 28.8758 32.3245 29.2021C32.3996 29.2277 32.4747 29.2611 32.5491 29.2949C32.479 28.9379 32.3725 28.5643 32.4504 28.1982C32.5416 27.7321 33.1159 27.6159 33.2737 27.1807C33.4779 26.6218 33.6703 26.047 33.7278 25.4512C33.3661 25.1997 32.9967 24.9586 32.6428 24.6953C32.0954 24.3112 31.4703 24.0637 30.8489 23.8311C30.2108 23.5902 29.5597 23.3591 28.8792 23.2705C28.4912 23.2402 28.1013 23.2464 27.7122 23.2617ZM19.5403 0.879883C19.2385 0.859026 18.937 0.766387 18.634 0.833984C18.2715 0.914678 17.9089 1.03922 17.5999 1.24902C17.5625 1.61495 17.5892 1.98563 17.5833 2.35352C17.5982 3.20689 17.5597 4.06574 17.6038 4.92188C17.6844 4.84323 17.776 4.76956 17.8303 4.66895C18.1936 3.98844 18.5423 3.29674 18.9485 2.64062C19.0866 2.38398 19.2421 2.13424 19.4436 1.9209C19.4708 2.20075 19.3386 2.45273 19.2532 2.71094C18.8056 3.86385 18.2947 4.99424 17.8118 6.13574C17.5882 6.63002 17.3519 7.15157 17.384 7.70801C17.4057 9.30692 17.3638 10.9109 17.4036 12.5098C17.5846 12.3059 17.6846 12.0473 17.8215 11.8154C18.1935 11.1676 18.5753 10.52 18.8586 9.82617C19.0314 9.32048 19.1489 8.79739 19.2756 8.27832C19.4291 7.69577 19.327 7.08732 19.384 6.49414C19.4486 6.05138 19.5596 5.61601 19.7229 5.19922C19.9827 4.49238 20.2297 3.74818 20.7219 3.16211C20.5511 3.99181 20.317 4.80433 20.1135 5.62695C19.9727 6.12554 19.8823 6.63878 19.8489 7.15625C19.9077 7.1456 20.0263 7.12409 20.0852 7.1123C20.3505 6.86553 20.5949 6.59439 20.8362 6.3252C21.0388 6.04352 21.2507 5.74855 21.5803 5.60645C21.6116 5.97945 21.3959 6.31251 21.1594 6.58008C20.7776 7.00085 20.4472 7.46384 20.1272 7.93066C19.9264 8.21998 19.8958 8.57987 19.8186 8.91406C19.7245 9.34727 19.5478 9.75992 19.4836 10.1982C20.065 9.8302 20.4848 9.26958 20.9485 8.77246C21.1704 8.52695 21.3712 8.2489 21.6702 8.08789C21.6336 8.25081 21.5703 8.4084 21.47 8.54102C20.9315 9.2952 20.2606 9.93985 19.6213 10.6055C19.2448 10.9945 18.7997 11.349 18.5911 11.8643C18.1589 12.6854 17.8447 13.5633 17.6223 14.4619C17.4678 15.0391 17.4983 15.6431 17.5286 16.2324C17.6163 16.7693 17.5578 17.3181 17.6106 17.8594C17.7306 18.6745 17.7955 19.5251 18.1643 20.2773C18.8972 18.6265 19.5823 16.9517 20.1711 15.2422C20.3371 14.8416 20.2147 14.3987 20.304 13.9824C20.437 13.2294 20.5395 12.4051 21.0725 11.8115C21.1371 12.2567 21.0197 12.6932 21.0012 13.1367C20.9253 13.8428 20.8605 14.551 20.8704 15.2617C20.903 16.213 20.7102 17.1608 20.3938 18.0547C20.2926 18.3294 20.1754 18.6013 20.1077 18.8887C20.3114 18.7656 20.4709 18.588 20.6467 18.4307C21.2206 17.9048 21.8212 17.3969 22.3049 16.7832C22.6118 16.4058 22.7541 15.9302 22.8713 15.4658C22.941 15.1912 22.9849 14.8939 22.8958 14.6182C22.7525 14.0828 22.6159 13.5413 22.386 13.0371C22.1943 12.6042 21.9859 12.1697 21.9221 11.6963C21.8784 11.3263 22.0135 10.9683 22.095 10.6133C22.1458 10.6133 22.245 10.6121 22.2942 10.6113C22.4052 11.1009 22.2242 11.6282 22.4534 12.0918C22.6706 12.5873 23.0111 13.0138 23.2834 13.4785C23.2248 12.8203 23.0212 12.188 22.887 11.5439C22.8283 11.1613 22.9149 10.7783 22.97 10.4004C23.0554 10.0159 23.1167 9.59703 23.3909 9.29199C23.4401 9.44498 23.5101 9.60163 23.4739 9.76562C23.3346 10.6528 23.429 11.5614 23.6545 12.4258C23.74 12.7143 23.8964 12.9759 23.968 13.2676C24.1101 13.7891 24.0488 14.3447 23.9016 14.8584C23.5918 15.851 23.0052 16.7239 22.3762 17.5391C21.9579 18.0578 21.5241 18.5658 21.0471 19.0322C20.772 19.3298 20.4505 19.5869 20.2092 19.916C19.4378 20.9826 18.644 22.079 18.2854 23.3652C18.2602 23.5643 18.1466 23.789 18.2297 23.9834C18.2584 23.9228 18.2812 23.8596 18.3 23.7939C18.9782 22.9517 19.9318 22.4173 20.7981 21.7979C21.9987 21.0047 23.2089 20.1384 24.0198 18.9248C24.2641 18.5092 24.4343 18.0507 24.554 17.584C24.6299 17.8327 24.7687 18.0848 24.6956 18.3516C24.4677 19.4553 23.7986 20.3907 23.1692 21.3008C22.7201 21.8865 22.0583 22.2434 21.4797 22.6826C21.0448 22.975 20.6866 23.3596 20.26 23.6631C19.4221 24.3109 18.6923 25.1223 18.2463 26.0908C18.0838 26.4388 18.0576 26.83 18.0608 27.209C18.0297 28.0477 18.2711 28.862 18.4026 29.6826C18.4046 29.981 18.4666 30.2747 18.5051 30.5684C18.7011 29.6186 19.1806 28.7467 19.7112 27.9414C21.1317 25.8497 23.0133 24.1418 24.7952 22.3701C25.1631 21.9892 25.5777 21.6168 25.7659 21.1084C25.9587 20.5837 26.2431 20.0999 26.4407 19.5771C26.6713 18.9612 26.8922 18.327 26.9163 17.665C26.9245 17.0919 26.9309 16.5196 26.9348 15.9473C26.9132 15.4517 27.0603 14.9508 26.9221 14.4619C26.8067 13.981 26.4551 13.6076 26.3059 13.1396C26.1705 12.7104 25.9335 12.3262 25.7375 11.9248C25.2758 11.0832 24.8329 10.2259 24.2688 9.44727C23.5607 8.21916 22.5261 7.15499 22.1526 5.75684C21.9593 4.9311 21.7828 4.08296 21.845 3.23047C22.1642 3.44658 22.241 3.85126 22.3264 4.20117C22.4705 4.99354 22.7492 5.75323 23.0862 6.48145C23.2676 6.82429 23.4337 7.19433 23.7336 7.45215C23.8288 7.47653 23.9273 7.48999 24.0276 7.49707C24.0559 7.40589 24.0798 7.31462 24.1018 7.22266C24.1726 6.43202 24.069 5.64179 24.0461 4.85352C24.0721 4.85548 24.1226 4.86285 24.1467 4.86523C24.3231 5.46187 24.5691 6.0498 24.6077 6.67871C24.7124 7.31402 24.6422 7.95978 24.6682 8.59863C24.7984 8.85076 25.0182 9.04023 25.178 9.27344C25.439 9.64699 25.6816 10.0357 25.9524 10.4053C25.9662 10.0093 25.9551 9.61278 25.9583 9.2168C25.9701 8.59683 25.8629 7.98575 25.8196 7.37012C25.718 6.77393 25.5289 6.1917 25.2629 5.64941C25.0504 5.24477 24.9827 4.76979 24.6965 4.40332C24.3566 4.22764 23.9546 4.3196 23.5872 4.30078C23.3589 4.32834 23.1883 4.14936 23.0403 4.00293C22.5634 3.52941 22.3868 2.84679 21.9602 2.33594C21.7009 2.1128 21.4933 1.84295 21.2737 1.58203C20.9549 1.3211 20.5513 1.20963 20.1731 1.06836C19.9669 0.994394 19.7606 0.903162 19.5403 0.879883ZM32.0852 29.9268C32.2138 30.0691 32.352 30.2003 32.4924 30.3281C32.492 30.1933 32.4891 30.0589 32.4856 29.9229C32.3525 29.9229 32.219 29.9232 32.0852 29.9268ZM32.4143 23.8896C32.7154 24.1037 33.0685 24.2287 33.3723 24.4385C33.5265 24.5447 33.698 24.6262 33.8782 24.6777C33.9392 24.4278 34.0015 24.1734 33.9963 23.916C33.9121 23.8426 33.7887 23.886 33.6868 23.875C33.2633 23.8872 32.8382 23.846 32.4143 23.8896ZM33.9377 22.0801C33.5434 22.0561 33.1722 22.2147 32.8274 22.3867C32.7148 22.467 32.5222 22.5403 32.5627 22.71C32.632 22.7941 32.7273 22.8533 32.8284 22.8926C33.2094 23.0043 33.6106 22.9972 34.0042 23C33.9834 22.6928 34.0132 22.381 33.9377 22.0801ZM32.3137 17.7764C31.78 17.8429 31.2573 18.0053 30.7834 18.2627C29.5239 18.8531 28.288 19.5546 27.3 20.5488C26.7616 21.0601 26.2845 21.664 26.0432 22.374C26.2801 22.3721 26.515 22.3889 26.7502 22.418C27.4504 22.4376 28.1544 22.4069 28.8499 22.5029C29.389 22.484 29.9216 22.5914 30.4612 22.5879C30.569 22.5843 30.6908 22.5891 30.7747 22.5088C31.2903 22.1054 31.8538 21.7685 32.3899 21.3926C32.7512 21.1427 33.1671 20.9577 33.469 20.6318C33.2655 20.3552 33.0472 20.0907 32.7922 19.8633C32.5769 19.6767 32.4601 19.3908 32.4983 19.1074C32.5652 18.745 32.5546 18.373 32.551 18.0059C32.5613 17.8764 32.4519 17.7354 32.3137 17.7764ZM31.9993 15.4736C31.6033 15.4949 31.2402 15.6687 30.8655 15.7793C30.446 15.943 29.9472 16.1254 29.7756 16.585C29.5938 17.0379 29.3877 17.4898 29.2913 17.9707C29.6598 17.855 29.9904 17.6568 30.3401 17.4971C30.9888 17.1794 31.6511 16.8868 32.303 16.5742C32.1979 16.2086 32.104 15.8397 31.9993 15.4736ZM29.5305 10.9658C29.366 10.8989 29.2915 11.1035 29.2131 11.207C28.7728 11.965 28.4783 12.8056 28.3303 13.6689C28.0394 14.9766 27.7736 16.2938 27.6067 17.6211C28.178 17.1788 28.53 16.524 28.9778 15.9688C29.4423 15.239 29.984 14.5532 30.3694 13.7773C30.5134 13.3815 30.6639 12.9909 30.8079 12.5967C30.8925 12.3747 30.8186 12.1277 30.6399 11.9746C30.2843 11.6267 29.9987 11.1768 29.5305 10.9658ZM31.2854 13.2109C31.0115 13.5167 30.9749 13.9365 30.8538 14.3115C30.7927 14.4993 30.7583 14.695 30.7551 14.8926C31.1295 14.9166 31.4735 14.7531 31.8274 14.6602C31.8164 14.1343 31.5684 13.6412 31.2854 13.2109ZM27.7493 7.05762C27.4475 7.59839 27.2847 8.19916 27.093 8.7832C26.7821 9.3815 26.7922 10.0741 26.7961 10.7295C26.7718 11.1214 26.8905 11.5038 26.8586 11.8965C26.8307 12.3451 26.8912 12.7966 27.0764 13.209C27.1788 13.1464 27.2921 13.0889 27.3625 12.9854C27.6596 12.5265 27.8951 12.0166 27.9778 11.4717C28.0353 11.1867 27.9939 10.8934 28.0286 10.6064C28.136 10.0916 28.332 9.60056 28.5217 9.11133C28.6361 8.8115 28.5719 8.47584 28.4299 8.19727C28.2359 7.81505 28.0635 7.41771 27.8147 7.06738C27.7977 7.06498 27.766 7.05957 27.7493 7.05762ZM26.7434 5.75586C26.6423 6.01947 26.5511 6.28635 26.4661 6.55664C26.3831 6.76551 26.5643 6.94338 26.6663 7.10742C26.8918 6.90392 27.0896 6.6617 27.2092 6.38184C27.2337 6.09417 26.9401 5.91158 26.7434 5.75586Z" fill="#ED1C24"/>
<path d="M14.3329 0.895898C14.6624 0.878578 14.9891 0.77899 15.3209 0.823469C15.7145 0.899046 16.1357 1.0132 16.412 1.3222C16.4459 1.59577 16.427 1.87131 16.4309 2.14606C16.4227 3.07659 16.4388 4.00634 16.4195 4.93412C16.1184 4.69716 15.9928 4.32911 15.818 4.00319C15.5264 3.47219 15.2528 2.93213 14.9288 2.42041C14.8096 2.22124 14.6706 2.0323 14.4998 1.87327C14.5986 2.4767 14.8946 3.02109 15.1009 3.59224C15.3988 4.35627 15.7527 5.09866 16.0597 5.86032C16.2951 6.40432 16.6155 6.95894 16.5703 7.57181C16.5691 8.99084 16.5691 10.4107 16.5703 11.8289C16.5703 12.0824 16.5691 12.3355 16.5384 12.587C16.1081 11.5463 15.3764 10.6449 15.0481 9.55688C14.9151 9.02863 14.7521 8.50628 14.6505 7.97016C14.6257 7.56433 14.6372 7.15536 14.6301 6.74795C14.6486 6.30237 14.4817 5.88119 14.3585 5.46079C14.2109 4.90224 13.9617 4.37989 13.7165 3.85991C13.6141 3.65522 13.5177 3.43007 13.315 3.30726C13.4492 4.13899 13.7531 4.93491 13.9212 5.76192C14.0589 6.25789 14.1066 6.76842 14.1561 7.27738C13.7472 7.07821 13.5047 6.68064 13.1977 6.36338C12.9678 6.08312 12.7655 5.75916 12.4226 5.6021C12.3958 6.04336 12.686 6.41888 12.9552 6.73851C13.3217 7.11836 13.6275 7.55292 13.907 7.9989C14.0491 8.22563 14.0778 8.49684 14.1455 8.75073C14.2487 9.2156 14.3915 9.67221 14.5021 10.1359C14.3908 10.0997 14.2805 10.056 14.1943 9.97491C13.7818 9.60529 13.4102 9.19356 13.0524 8.77277C12.8119 8.54014 12.6202 8.25003 12.3289 8.07723C12.4419 8.53227 12.7844 8.87669 13.0729 9.22938C13.3854 9.62419 13.772 9.95168 14.0987 10.3367C14.4506 10.7444 14.8647 11.0928 15.2146 11.5018C15.461 11.9517 15.6728 12.4213 15.8881 12.8893C16.1274 13.5959 16.3825 14.3064 16.4754 15.0519C16.5041 15.6018 16.4986 16.1549 16.4286 16.702C16.4471 17.1877 16.3455 17.6648 16.3459 18.1498C16.2534 18.8559 16.157 19.581 15.8373 20.2273C15.2457 19.0791 14.808 17.8608 14.3325 16.6626C14.1522 16.0994 13.868 15.5691 13.7665 14.9815C13.6779 14.2536 13.6862 13.5077 13.4484 12.8059C13.3417 12.4607 13.202 12.1084 12.9249 11.8627C12.8769 12.3131 12.9926 12.7571 12.9953 13.2066C13.0481 13.512 13.0501 13.8222 13.0729 14.1296C13.1803 14.7772 13.0859 15.4369 13.1721 16.0856C13.191 16.715 13.3598 17.3267 13.5496 17.925C13.6488 18.2308 13.8487 18.5186 13.8227 18.8551C13.2961 18.3753 12.7556 17.9077 12.2439 17.409C11.8751 17.0141 11.4759 16.6087 11.3063 16.0809C11.1835 15.727 11.0461 15.368 11.0536 14.9874C11.0386 14.6173 11.2146 14.2773 11.2921 13.9218C11.4232 13.3459 11.7322 12.8378 11.9381 12.2894C12.0798 11.9486 12.0251 11.5695 12.0306 11.2105C12.04 10.9562 11.9251 10.7177 11.7802 10.5161C11.5326 10.9617 11.657 11.4699 11.6043 11.9505C11.4047 12.4292 11.1051 12.8677 10.7836 13.2727C10.7336 12.8933 10.8977 12.5425 10.9693 12.1792C11.0469 11.8147 11.1646 11.4498 11.1244 11.0727C11.05 10.4681 10.9465 9.85957 10.6844 9.30495C10.63 9.34038 10.5761 9.37502 10.5214 9.41123C10.5025 9.69228 10.5899 9.96586 10.5844 10.2469C10.5848 10.5874 10.5946 10.9295 10.5631 11.2684C10.4517 11.8466 10.3891 12.4437 10.127 12.9779C9.99748 13.2397 9.94316 13.5298 9.95693 13.8206C9.90812 14.7264 10.336 15.5648 10.7788 16.3257C11.5429 17.6258 12.632 18.6835 13.6708 19.7601C14.4502 20.7587 15.1749 21.8239 15.6071 23.0229C15.6964 23.2736 15.7551 23.5381 15.7433 23.8078C15.4114 23.5133 15.1363 23.1571 14.7675 22.9056C13.4212 21.8778 11.9038 21.061 10.7084 19.8416C10.151 19.27 9.68061 18.5827 9.51686 17.7888L9.44797 17.7427L9.36334 17.7707C9.32005 18.0923 9.31139 18.4281 9.37673 18.7469C9.6011 19.3558 9.91993 19.927 10.2675 20.4733C10.5856 20.9319 10.8603 21.4381 11.3094 21.7873C11.8582 22.225 12.4643 22.5871 12.9965 23.0492C13.5263 23.5263 14.1235 23.927 14.6143 24.4466C15.0827 24.932 15.4657 25.4968 15.7527 26.1065C16.0164 26.6411 15.931 27.2512 15.929 27.8259C15.8196 28.5462 15.6649 29.2591 15.559 29.9802C15.5378 30.1223 15.515 30.2648 15.461 30.4002C15.2 29.4181 14.6931 28.5277 14.1235 27.6933C12.7812 25.8168 11.0859 24.2333 9.44797 22.6218C9.14094 22.2809 8.804 21.9656 8.51823 21.6062C8.23796 21.174 8.06516 20.6831 7.83961 20.2226C7.48299 19.409 7.12518 18.5678 7.08346 17.668C7.06968 16.6591 7.07047 15.651 7.06692 14.6418C7.04094 14.2816 7.27594 13.9816 7.44795 13.6872C7.67744 13.3538 7.71916 12.9354 7.92306 12.5898C8.50327 11.4931 9.06261 10.3764 9.78453 9.36361C10.2868 8.52439 10.8957 7.75603 11.3807 6.90698C11.9696 5.8249 12.0778 4.57828 12.2262 3.37968C12.116 3.19271 11.9849 3.41984 11.9062 3.51785C11.6578 4.02838 11.6228 4.61095 11.4307 5.14195C11.1162 6.0099 10.8359 6.955 10.1219 7.58914C9.84475 7.34627 9.84711 6.94988 9.83924 6.61255C9.88687 6.29371 9.89002 5.97133 9.90773 5.64973C9.94434 5.40844 9.97386 5.16439 9.94631 4.91995C9.72706 5.11322 9.66722 5.40687 9.59007 5.67414C9.49757 6.01856 9.42357 6.36613 9.3661 6.71607C9.30666 7.36004 9.35823 8.00835 9.33028 8.65311C9.08977 8.99163 8.79573 9.29472 8.57215 9.64741C8.40211 9.88083 8.2789 10.1532 8.04942 10.3386C8.03249 9.64702 7.99667 8.94912 8.09429 8.26302C8.12539 7.31163 8.34424 6.35157 8.80361 5.51354C8.99137 5.13526 9.04293 4.66803 9.36295 4.36926C9.85892 4.17324 10.4816 4.48814 10.9091 4.09648C11.3523 3.58516 11.5928 2.9341 12.0014 2.39877C12.2534 2.13346 12.5076 1.86973 12.7104 1.56349C13.2087 1.24977 13.7779 1.07421 14.3329 0.895898Z" fill="#ED1C24"/>
<path d="M6.78867 6.39094C6.76584 6.10989 7.0461 5.94692 7.20316 5.75444C7.4476 6.13744 7.6763 6.71135 7.33148 7.10616C7.10869 6.90422 6.904 6.6712 6.78867 6.39094Z" fill="#ED1C24"/>
<path d="M6.15699 7.09355C6.23139 7.15929 6.31759 7.21794 6.36404 7.31005C6.54944 7.66195 6.67658 8.0418 6.77381 8.42677C6.86237 8.78654 7.06981 9.10538 7.13161 9.47342C7.2127 10.0253 7.22294 10.5858 7.18121 11.1408C7.09579 11.6435 7.19223 12.1599 7.08871 12.6606C7.06194 12.8507 7.04777 13.1916 6.76633 13.1117C6.59589 12.9539 6.49669 12.7397 6.38333 12.5414C6.19754 12.1706 6.02198 11.7702 6.04363 11.3467C6.05347 10.5653 5.7614 9.83084 5.48625 9.11443C5.33037 8.73891 5.47602 8.32836 5.66575 7.99496C5.8291 7.69423 6.00623 7.40216 6.15699 7.09355Z" fill="#ED1C24"/>
<path d="M3.64118 11.6518C3.91593 11.3656 4.19225 11.0534 4.57722 10.9196C5.30307 11.8903 5.5668 13.1011 5.80101 14.2647C5.88839 14.7295 6.02144 15.1834 6.07615 15.6534C6.18047 16.3111 6.33556 16.9622 6.39106 17.6262C6.1226 17.5129 5.99152 17.2432 5.81675 17.0303C5.38928 16.4859 4.97321 15.9332 4.60438 15.3471C4.27137 14.8083 3.85807 14.3158 3.60496 13.7289C3.46483 13.3845 3.37154 13.0243 3.21645 12.6866C3.14442 12.55 3.1456 12.391 3.16371 12.2418C3.27628 12.0108 3.47074 11.8376 3.64118 11.6518Z" fill="#ED1C24"/>
<path d="M2.11938 14.6551C2.17607 14.1222 2.45633 13.6455 2.71455 13.1881C3.05346 13.6675 3.11369 14.2725 3.2609 14.8272C2.87279 15.0039 2.50238 14.6988 2.11938 14.6551Z" fill="#ED1C24"/>
<path d="M1.95066 15.4192C2.45922 15.5274 2.94614 15.7148 3.4303 15.9029C3.76331 16.0265 4.09317 16.2462 4.22267 16.5926C4.41673 17.0508 4.60253 17.5137 4.75525 17.988C4.43366 17.9215 4.15773 17.7306 3.86054 17.6003C3.15555 17.2472 2.43167 16.9295 1.7196 16.5942C1.7133 16.1899 1.96365 15.8289 1.95066 15.4192Z" fill="#ED1C24"/>
<path d="M1.44996 17.7727C1.85224 17.7683 2.25335 17.8471 2.63044 17.9903C4.19629 18.6902 5.75899 19.5164 6.94263 20.7875C7.3709 21.246 7.7783 21.7629 7.94284 22.3797C6.95798 22.3498 5.97194 22.3639 4.9867 22.3773C4.48088 22.3639 3.98019 22.4651 3.47399 22.4379C3.2445 22.358 3.04651 22.2084 2.83946 22.0841C2.0959 21.5743 1.32872 21.1008 0.55957 20.628C0.785119 20.1187 1.40902 19.879 1.49719 19.3011C1.53734 19.1138 1.45468 18.9319 1.44996 18.7465C1.43657 18.4206 1.44287 18.0962 1.44996 17.7727Z" fill="#ED1C24"/>
<path d="M0.0899218 22.0164C0.561487 22.1411 1.04368 22.2734 1.44361 22.5643C1.444 22.6072 1.44636 22.691 1.44715 22.7343C1.03541 23.037 0.485911 22.9918 0.00174935 22.9922C-0.0076977 22.6643 0.0210371 22.3376 0.0899218 22.0164Z" fill="#ED1C24"/>
<path d="M2.11665 24.2565C3.32076 23.779 4.55163 23.1894 5.87855 23.2508C7.01259 23.2358 8.05845 23.7511 9.06456 24.214C9.46134 24.384 9.76404 24.7005 10.1179 24.9382C10.51 25.215 10.9386 25.4468 11.276 25.7932C11.7377 26.2368 12.0258 26.8158 12.3222 27.3732C12.7965 28.2408 13.1359 29.1717 13.5535 30.0656C13.6527 30.2817 13.7676 30.499 13.7653 30.7442C13.1063 30.2652 12.4061 29.8444 11.6668 29.5027C10.5029 28.9599 9.33066 28.4171 8.09703 28.0491C7.77858 27.957 7.58335 27.6704 7.36409 27.4429C6.8575 26.8178 6.51543 26.0825 6.12889 25.3823C6.00175 25.6936 6.09661 26.027 6.15723 26.3411C6.31783 26.8871 6.52842 27.4331 6.88662 27.8814C6.42726 27.9007 6.18164 27.4457 5.81005 27.2583C4.77718 26.6883 3.67463 26.2215 2.51421 25.9967C2.1076 25.8987 1.6876 25.9203 1.27429 25.9278C1.06055 25.9144 0.892862 26.0609 0.732656 26.1782C1.72775 26.5915 2.82518 26.6769 3.81869 27.0977C4.40992 27.3095 4.94644 27.6373 5.47626 27.9672C5.65221 28.0739 5.80533 28.2152 5.9246 28.3817C4.4174 28.4364 2.9535 28.8426 1.51204 29.2583C1.47031 28.8115 1.6813 28.3478 1.4463 27.9282C1.26641 27.7421 1.04323 27.6015 0.885777 27.3945C0.649601 27.1363 0.584652 26.7848 0.488214 26.4632C0.391381 26.1376 0.299666 25.8097 0.266602 25.4736C0.862553 25.0386 1.46874 24.6111 2.11665 24.2565Z" fill="#ED1C24"/>
<path d="M0.0970765 23.8794C0.549748 23.8818 1.0036 23.8621 1.45588 23.8845C1.29685 24.0876 1.05359 24.188 0.83434 24.3112C0.593441 24.4423 0.377339 24.6356 0.0951084 24.6678C0.0758206 24.4348 0.0258299 24.2057 0.000244141 23.9739C0.0238618 23.9503 0.0730653 23.9018 0.0970765 23.8794Z" fill="#ED1C24"/>
<path d="M6.88127 29.1839C7.16508 29.154 7.45046 29.069 7.73584 29.1387C8.3865 29.2079 9.03402 29.3477 9.63784 29.6086C9.63981 29.6523 9.64099 29.7382 9.64296 29.7811C9.27413 29.885 8.88562 29.9251 8.53608 30.0916C7.01628 30.6998 5.62678 31.574 4.17115 32.3148C3.72989 32.5191 3.291 32.7533 2.80684 32.8384C2.68481 32.8651 2.57026 32.9163 2.45887 32.9734C3.07411 33.3017 3.78224 33.106 4.4026 32.8974C4.9214 32.7636 5.41147 32.5475 5.90389 32.3408C6.28099 32.1719 6.62738 31.9377 7.02219 31.8071C6.72894 32.3105 6.31602 32.7388 6.0948 33.2816C6.01923 33.4256 6.05938 33.5925 6.05938 33.748C6.45143 33.4575 6.64431 32.9836 7.00566 32.6616C7.90273 31.8126 8.9423 31.0918 10.1094 30.6714C10.5503 30.5183 11.0348 30.4825 11.4922 30.5561C12.3488 30.9328 13.3064 31.132 14.0429 31.7401C14.322 31.9499 14.4716 32.2763 14.6204 32.5817C14.8121 32.9836 14.7684 33.4371 14.7826 33.8701C14.8691 34.873 14.8211 35.8835 14.8361 36.8915C14.827 37.1588 14.8609 37.4292 14.8164 37.6949C14.5342 37.974 14.2838 38.2952 13.9481 38.5141C13.4076 38.8829 12.7605 39.0868 12.1098 39.1344C11.7386 39.1927 11.3576 39.2108 10.9864 39.1435C9.29775 38.9915 7.65632 38.4499 6.17274 37.6386C5.48704 37.1883 4.78284 36.7538 4.1987 36.172C3.48663 35.5339 2.90446 34.7597 2.44942 33.9212C2.05028 33.2469 1.93456 32.4609 1.67673 31.7331C1.60155 31.5292 1.57203 31.3158 1.56494 31.1021C2.42541 30.4235 3.36657 29.7834 4.44944 29.5374C4.88164 29.4658 5.30794 29.3599 5.74329 29.3122C6.12551 29.3024 6.50181 29.2343 6.88127 29.1839Z" fill="#ED1C24"/>
<path d="M1.40698 30.0649C1.5479 29.9775 1.70338 29.9149 1.87186 29.9102C1.77581 30.0558 1.6652 30.1904 1.55302 30.3231C1.51759 30.2593 1.44398 30.129 1.40698 30.0649Z" fill="#ED1C24"/>
</svg>
