<svg width="72" height="14" viewBox="0 0 72 14" fill="none" xmlns="http://www.w3.org/2000/svg">
<path d="M46.0998 0.000684738H48.479C48.6424 0.000684738 48.759 0.117216 48.759 0.280645V13.7173C48.759 13.8807 48.6424 13.9973 48.479 13.9973H46.2391C46.0756 13.9973 45.9591 13.8807 45.9591 13.7173V6.27563C45.9591 6.20528 45.9826 6.13565 46.0295 6.08875L47.1729 4.7124C47.2432 4.61931 47.1729 4.50278 47.0563 4.50278L46.0998 4.47933C46.0067 4.47933 45.9364 4.52623 45.8667 4.59586L38.0747 13.9035C38.005 13.9504 37.9347 13.9966 37.8416 13.9966H33.7825C33.6894 13.9966 33.619 13.9497 33.5494 13.9035L25.7573 4.59586C25.6877 4.52552 25.6173 4.47933 25.5242 4.47933L24.5677 4.50278C24.4512 4.50278 24.3808 4.61931 24.4512 4.7124L25.5946 6.08875C25.6415 6.13565 25.6649 6.20528 25.6649 6.27563V13.7173C25.6649 13.8807 25.5484 13.9973 25.3849 13.9973H23.145C22.9816 13.9973 22.8651 13.8807 22.8651 13.7173V0.280645C22.8651 0.117216 22.9816 0.000684738 23.145 0.000684738H25.5249C25.618 0.000684738 25.6884 0.0475814 25.758 0.0937677L34.9735 11.1039C35.0204 11.1508 35.1135 11.197 35.1838 11.197H36.4438C36.5141 11.197 36.6072 11.1501 36.6534 11.1039L45.8689 0.0937677C45.9392 0.0468709 46.0088 0.000684738 46.1019 0.000684738H46.0998Z" fill="white"/>
<path d="M69.1031 0.000711252H71.343C71.5065 0.000711252 71.623 0.117243 71.623 0.280671V13.7173C71.623 13.8808 71.5065 13.9973 71.343 13.9973H66.1405C66.0701 13.9973 66.0005 13.9738 65.9302 13.9042L54.9182 2.89339C54.8479 2.82376 54.7782 2.80031 54.7079 2.80031H52.3287C52.2121 2.80031 52.1418 2.94029 52.2121 3.03337L53.3556 4.38628C53.4025 4.45662 53.4259 4.50281 53.4259 4.57315V13.7173C53.4259 13.8808 53.3094 13.9973 53.1459 13.9973H50.906C50.7426 13.9973 50.626 13.8808 50.626 13.7173V0.280671C50.626 0.117243 50.7426 0.000711252 50.906 0.000711252H56.1085C56.1789 0.000711252 56.2485 0.0241595 56.3182 0.0937942L67.3301 11.1039C67.3997 11.1742 67.4701 11.197 67.5397 11.197H69.9196C70.0362 11.197 70.1065 11.057 70.0362 10.9639L68.8928 9.61101C68.8459 9.54138 68.8231 9.49448 68.8231 9.42414V0.27996C68.8231 0.116532 68.9397 0 69.1031 0V0.000711252Z" fill="white"/>
<path d="M15.14 9.5654H17.613C17.986 9.5654 18.3371 9.42542 18.6164 9.14617L20.5749 7.42094C20.8563 7.13955 20.9963 6.78996 20.9963 6.41763V3.38425C20.9963 3.01121 20.8563 2.66233 20.5749 2.38095L18.6164 0.422647C18.3371 0.143398 17.9853 0.00341797 17.613 0.00341797H0.279278C0.116543 0.00341797 0 0.119949 0 0.282667V13.7193C0 13.882 0.116543 13.9986 0.279278 13.9986H2.51918C2.68192 13.9986 2.79846 13.882 2.79846 13.7193V9.84749C2.79846 9.68264 2.915 9.56611 3.07774 9.56611H8.11682C8.18646 9.56611 8.25681 9.58956 8.32645 9.61301L18.0784 13.9531C18.1481 13.9765 18.2412 14 18.3129 14H20.7142C20.879 14 20.9956 13.8835 20.9956 13.7207V12.3678C20.9956 12.2499 20.9259 12.1561 20.8094 12.1099L15.0931 9.84892C14.9531 9.77715 15 9.56753 15.14 9.56753V9.5654ZM3.07845 6.99958C2.91571 6.99958 2.79917 6.88304 2.79917 6.72033V3.08085C2.79917 2.91813 2.91571 2.8016 3.07845 2.8016H17.9164C18.0791 2.8016 18.1957 2.91813 18.1957 3.08085V6.72033C18.1957 6.88304 18.0791 6.99958 17.9164 6.99958H3.07845Z" fill="white"/>
</svg>
